<?xml version="1.0" encoding="UTF-8"?>
<svg id="Capa_1" xmlns="http://www.w3.org/2000/svg" xmlns:xlink="http://www.w3.org/1999/xlink" viewBox="0 0 1920 1080">
  <defs>
    <style>
      .cls-1, .cls-2, .cls-3, .cls-4 {
        fill: #141414;
      }

      .cls-5 {
        fill: #fff;
        font-family: Montserrat-Black, Montserrat;
        font-size: 403.29px;
        font-weight: 800;
      }

      .cls-6 {
        fill: none;
      }

      .cls-7 {
        fill: url(#Degradado_sin_nombre_51);
        filter: url(#drop-shadow-7);
      }

      .cls-8 {
        clip-path: url(#clippath-1);
      }

      .cls-2 {
        filter: url(#drop-shadow-2);
      }

      .cls-9 {
        fill: url(#Degradado_sin_nombre_51-2);
        filter: url(#drop-shadow-9);
      }

      .cls-3 {
        filter: url(#drop-shadow-6);
      }

      .cls-10 {
        fill: url(#Degradado_sin_nombre_43);
        filter: url(#drop-shadow-8);
      }

      .cls-4 {
        filter: url(#drop-shadow-5);
      }

      .cls-11 {
        fill: url(#Degradado_sin_nombre_3);
        filter: url(#drop-shadow-3);
      }

      .cls-12 {
        clip-path: url(#clippath);
      }
    </style>
    <clipPath id="clippath">
      <path class="cls-6" d="M1975.32,1079.7c-445.7-.09-2380.15,1.79-2377.78-.61-.05-1-.02-3.46-.03-7.53-.29-258.71.21-719.88,0-1010.04-.13-18.08.1-33.77,0-50.78-.05-2.54.04-4.7,0-7.07C-402.45-.43-402.7.05-400.85,0c5.4.06,10.01-.04,15.66,0C-120.15.84,1923.78-1.69,1975.43.91c.05,1.13.02,4.16.03,9.2,1.38,268.66-.83,798.57-.14,1069.59h0Z"/>
    </clipPath>
    <filter id="drop-shadow-2" x="-680.2" y="-434.12" width="2845" height="2145" filterUnits="userSpaceOnUse">
      <feOffset dx="5" dy="5"/>
      <feGaussianBlur result="blur" stdDeviation="10"/>
      <feFlood flood-color="#000" flood-opacity=".4"/>
      <feComposite in2="blur" operator="in"/>
      <feComposite in="SourceGraphic"/>
    </filter>
    <linearGradient id="Degradado_sin_nombre_3" data-name="Degradado sin nombre 3" x1="-792.81" y1="582.96" x2="2035.07" y2="582.96" gradientUnits="userSpaceOnUse">
      <stop offset="0" stop-color="#1c723f"/>
      <stop offset=".09" stop-color="#27ac5f"/>
      <stop offset=".14" stop-color="#2ecc71"/>
      <stop offset=".21" stop-color="#2ecc71"/>
      <stop offset=".34" stop-color="#337c51"/>
      <stop offset=".49" stop-color="#184f2e"/>
      <stop offset=".54" stop-color="#18522f"/>
      <stop offset=".58" stop-color="#1a5d35"/>
      <stop offset=".61" stop-color="#1d6f3f"/>
      <stop offset=".65" stop-color="#22894d"/>
      <stop offset=".69" stop-color="#27a95e"/>
      <stop offset=".72" stop-color="#2ecc71"/>
      <stop offset=".84" stop-color="#2ecc71"/>
    </linearGradient>
    <filter id="drop-shadow-3" x="-813.2" y="-378.12" width="2889" height="1932" filterUnits="userSpaceOnUse">
      <feOffset dx="10" dy="5"/>
      <feGaussianBlur result="blur-2" stdDeviation="10"/>
      <feFlood flood-color="#000" flood-opacity=".35"/>
      <feComposite in2="blur-2" operator="in"/>
      <feComposite in="SourceGraphic"/>
    </filter>
    <clipPath id="clippath-1">
      <path class="cls-6" d="M2660.76-306.14c-445.7-.09-2380.15,1.79-2377.78-.61-.05-1-.02-3.46-.03-7.53-.29-258.71.21-719.88,0-1010.04-.13-18.08.1-33.77,0-50.78-.05-2.54.04-4.7,0-7.07.03-4.11-.22-3.63,1.63-3.68,5.4.06,10.01-.04,15.66,0,265.04.83,2308.97-1.69,2360.62.91.05,1.13.02,4.16.03,9.2,1.38,268.66-.83,798.57-.14,1069.59h0Z"/>
    </clipPath>
    <filter id="drop-shadow-5" x="5.8" y="-1820.12" width="2844" height="2145" filterUnits="userSpaceOnUse">
      <feOffset dx="5" dy="5"/>
      <feGaussianBlur result="blur-3" stdDeviation="10"/>
      <feFlood flood-color="#000" flood-opacity=".4"/>
      <feComposite in2="blur-3" operator="in"/>
      <feComposite in="SourceGraphic"/>
    </filter>
    <filter id="drop-shadow-6" x="-128.2" y="-1764.12" width="2889" height="1933" filterUnits="userSpaceOnUse">
      <feOffset dx="10" dy="5"/>
      <feGaussianBlur result="blur-4" stdDeviation="10"/>
      <feFlood flood-color="#000" flood-opacity=".35"/>
      <feComposite in2="blur-4" operator="in"/>
      <feComposite in="SourceGraphic"/>
    </filter>
    <linearGradient id="Degradado_sin_nombre_51" data-name="Degradado sin nombre 51" x1="379.02" y1="-693.96" x2="2757.81" y2="-693.96" gradientUnits="userSpaceOnUse">
      <stop offset="0" stop-color="#1c723f"/>
      <stop offset=".09" stop-color="#27ac5f"/>
      <stop offset=".14" stop-color="#2ecc71"/>
      <stop offset=".26" stop-color="#2ecc71"/>
      <stop offset=".36" stop-color="#337c51"/>
      <stop offset=".49" stop-color="#184f2e"/>
      <stop offset=".51" stop-color="#1a5e36"/>
      <stop offset=".66" stop-color="#28ac60"/>
      <stop offset=".72" stop-color="#2ecc71"/>
      <stop offset=".84" stop-color="#2ecc71"/>
    </linearGradient>
    <filter id="drop-shadow-7" x="353.8" y="-1645.12" width="2440" height="1913" filterUnits="userSpaceOnUse">
      <feOffset dx="5" dy="5"/>
      <feGaussianBlur result="blur-5" stdDeviation="10"/>
      <feFlood flood-color="#000" flood-opacity=".25"/>
      <feComposite in2="blur-5" operator="in"/>
      <feComposite in="SourceGraphic"/>
    </filter>
    <linearGradient id="Degradado_sin_nombre_43" data-name="Degradado sin nombre 43" x1="537.79" y1="-1828.84" x2="3037.58" y2="-1828.84" gradientTransform="translate(-666.09 947.5) rotate(14.03)" gradientUnits="userSpaceOnUse">
      <stop offset="0" stop-color="#fff"/>
      <stop offset=".27" stop-color="#e7eff1"/>
      <stop offset=".32" stop-color="#e2ecef"/>
      <stop offset=".57" stop-color="#fff"/>
      <stop offset=".76" stop-color="#d1dbdc"/>
      <stop offset="1" stop-color="#fff"/>
    </linearGradient>
    <filter id="drop-shadow-8" x="313.8" y="-1311.12" width="2398" height="1753" filterUnits="userSpaceOnUse">
      <feOffset dx="5" dy="5"/>
      <feGaussianBlur result="blur-6" stdDeviation="10"/>
      <feFlood flood-color="#000" flood-opacity=".25"/>
      <feComposite in2="blur-6" operator="in"/>
      <feComposite in="SourceGraphic"/>
    </filter>
    <linearGradient id="Degradado_sin_nombre_51-2" data-name="Degradado sin nombre 51" x1="513.52" y1="-1813.66" x2="2341.36" y2="-1813.66" gradientTransform="translate(-666.09 947.5) rotate(14.03)" xlink:href="#Degradado_sin_nombre_51"/>
    <filter id="drop-shadow-9" x="257.8" y="-1136.12" width="1768" height="1295" filterUnits="userSpaceOnUse">
      <feOffset dx="5" dy="5"/>
      <feGaussianBlur result="blur-7" stdDeviation="10"/>
      <feFlood flood-color="#000" flood-opacity=".25"/>
      <feComposite in2="blur-7" operator="in"/>
      <feComposite in="SourceGraphic"/>
    </filter>
  </defs>
  <g class="cls-12">
    <path class="cls-1" d="M2038.68,1095.67c-442.23-.91-2383.34,2.4-2377.78-.65-.05-1.09-.01-3.84-.02-8.35-.58-252.37.42-711.63,0-997.34-.24-30.52.17-78.64,0-102.2,0-1.05,0-1.76.03-2.22.02-.34.07-.53.17-.66.07-.09.17-.14.32-.17,1.5-.08,9.29-.01,22.83-.04,243.06,1.06,2310.99-2.02,2354.58,1.05.04,1.34,0,4.93.02,10.76,1.06,278.91-.6,821.26-.14,1099.8h0Z"/>
    <path class="cls-2" d="M1559.3,986c-184.32-155.16-268.36-401.31-451.78-559.4-76.73-67.55-170.95-116.9-274.33-122.71-121.7-9.58-250.95,28.39-368.24-13.85-126.76-46.08-161.89-185.62-174.19-307.47-11.43-102.97-18.99-217.31-87.4-298.04-84.17-99.97-240.98-115.36-358.77-65.45-246.67,104.09-431.92,463.28-479.41,716.3-72.08,342.26,55.57,732.36,353.4,928.64,466.95,301.09,1068.83,38.84,1566.77,225.55,117.23,43.78,223.85,112.22,342.12,153.41,115.29,39.9,250.41,52,356.4-15.44,128.42-82.2,169.37-255.6,132.39-397.51-42.81-172.69-178.96-117.42-317.75-134.53-87.94-12.17-171.38-52.6-239.06-109.38l-.15-.13Z"/>
    <path class="cls-11" d="M1422.88,1041.5c-201.08-159.74-274.76-440.78-500.09-575.15-155.04-94.44-342.72-53.59-516.91-49.2-130.83,1.76-278.93-21.96-362.34-132.22C-28.58,188.48-28.28,60.92-43.73-54.15c-9.81-72.71-30.23-149.65-71.22-207.44-20.88-29.59-48.02-54.65-80.64-70.71-61.12-30.73-135.31-24.74-197.23,2.61-101.42,44.78-166.84,140.44-221.1,234.07-98.61,170.88-166.08,363.54-177.19,560.52-13.57,225.62,53.98,461.57,204.36,632.55,84.9,96.89,195.29,167.62,314.91,214.51,340.98,134.44,712.77,74.64,1069.22,59.89,221.48-9.02,449.01.77,657.56,82.43,95.27,35.96,195.1,79.95,298.58,59.18,77-15.39,145.15-62.77,193.57-124.55,33.84-44.26,61.58-92.66,79.65-149.86,5.52-19.29,8.89-37.46,8.26-56.87-.71-21.21-8.83-45.43-28.16-55.71-12.31-6.54-27.73-7.05-44.34-4.54-26.56,4-56.64,15.94-82.25,23.2-156.94,35.54-330.77-4.39-457.21-103.51l-.16-.12Z"/>
    <g>
      <text class="cls-5" transform="translate(302.84 656.95)"><tspan x="0" y="0">BOOK</tspan></text>
      <text class="cls-5" transform="translate(302.84 656.95)"><tspan x="0" y="0">BOOK</tspan></text>
    </g>
  </g>
  <g class="cls-8">
    <g>
      <path class="cls-4" d="M2244.74-399.84c-184.32-155.16-268.36-401.31-451.78-559.4-76.73-67.55-170.95-116.9-274.33-122.71-121.7-9.58-250.95,28.39-368.24-13.85-126.76-46.08-161.89-185.62-174.19-307.47-11.43-102.97-18.99-217.31-87.4-298.04-84.17-99.97-240.98-115.36-358.77-65.45-246.67,104.09-431.92,463.28-479.41,716.3C-21.47-708.2,106.18-318.09,404.01-121.82c466.95,301.09,1068.83,38.84,1566.77,225.55,117.23,43.78,223.85,112.22,342.12,153.41,115.29,39.9,250.41,52,356.4-15.44,128.42-82.2,169.37-255.6,132.39-397.51-42.81-172.69-178.96-117.42-317.75-134.53-87.94-12.17-171.38-52.6-239.06-109.38l-.15-.13Z"/>
      <path class="cls-3" d="M2108.32-344.34c-201.08-159.74-274.76-440.78-500.09-575.15-155.04-94.44-342.72-53.59-516.91-49.2-130.83,1.76-278.93-21.96-362.34-132.22-72.12-96.45-71.82-224.01-87.27-339.08-9.81-72.71-30.23-149.65-71.22-207.44-20.88-29.59-48.02-54.65-80.64-70.71-61.12-30.73-135.31-24.74-197.23,2.61-101.42,44.78-166.84,140.44-221.1,234.07-98.61,170.88-166.08,363.54-177.19,560.52-13.57,225.62,53.98,461.57,204.36,632.55,84.9,96.89,195.29,167.62,314.91,214.51C754.58,60.57,1126.37.77,1482.82-13.98c221.48-9.02,449.01.77,657.56,82.43,95.27,35.96,195.1,79.95,298.58,59.18,77-15.39,145.15-62.77,193.57-124.55,33.84-44.26,61.58-92.66,79.65-149.86,5.52-19.29,8.89-37.46,8.26-56.87-.71-21.21-8.83-45.43-28.16-55.71-12.31-6.54-27.73-7.05-44.34-4.54-26.56,4-56.64,15.94-82.25,23.2-156.94,35.54-330.77-4.39-457.21-103.51l-.16-.12Z"/>
    </g>
    <g>
      <path class="cls-7" d="M2326.25-67.07c-195.74-156.82-283.59-411.1-477.57-570.03-50.86-41.95-108.2-75.84-171.35-95.3-205.46-63.32-433.59,24.71-638.82-46.84-226.95-77.62-282-333.54-249.24-547.17,7.08-59.85,24.16-120.31,14.72-180.4-7.99-51.73-41.78-103.56-95.27-112.22-144.46-17.06-243.81,219.15-275.28,333.58C305.24-817.88,386.01-211.14,865.26,19.28c310.84,143.15,661.4,15.11,986.94,65.33,173.6,24.96,330.38,116,504.19,140.99,109.91,16.83,231.2,2.68,318.63-71.17,29.72-22.32,141.83-140.13,42.62-132.62-32,3.02-63.05,16.52-94.64,16.99-107.51,3.52-213.06-39.69-296.59-105.76l-.16-.12Z"/>
      <path class="cls-10" d="M2212.42-178.47c-132.11-134.55-258.57-293.77-444.31-353.67-224.07-71.93-471.3,14.37-700.95-35.72-96.45-19.79-189.89-64.23-250.77-143.73-102.95-134.43-100.83-316.79-167.91-467.7-23.54-54.48-71.61-117.54-133.73-105.01-52.4,11.05-77.36,69.89-93.54,117.91-72.44,216.94-97.06,449.68-71.84,677,13.51,119.39,43.49,251.09,142.38,328.95,87.29,67.97,201.33,70.64,313.67,74.86,51.79,1.81,101.84,4.5,152.34,12.94C1430.28.16,1803.09,462.62,2302.76,400.81c125.32-19.07,245.17-86.53,317.41-191.99,13.53-19.81,26.3-40.16,38.35-61.67,12.03-22.53,30.97-62.04,4.5-80.05-7.05-4.63-18.78-6.57-28.53-7.24-13.53-1.06-28.51-1.02-41.27-2.49-151.25-25.11-275.98-129.71-380.65-235.7l-.14-.14Z"/>
      <path class="cls-9" d="M335.37-922.05c16.25-47.11,35.75-95.42,58.6-139.93,7.21-13.94,16.1-28.88,28.2-38.29,27.36-21.86,65.07-6.75,89.83,12.02,61.31,47.78,100.4,127.21,127.02,198.72,61.69,174.06,59.23,398.42,225.54,513.91,108.5,72.21,247.89,57.66,368.35,27.81,187.2-49.74,366.8-119.63,548.55-14.02,116.53,65.35,223.64,202.5,206.83,341.48-3.72,25.07-13.03,49.3-28.21,69.68-71.86,92.84-203.44,77.06-307.04,63.73-315.04-40.68-615.18-156.08-914.16-264.67-127.68-46.48-265.33-93.33-354.48-196.14-136.59-158.65-115.53-389.27-49.07-574.11l.06-.19Z"/>
    </g>
  </g>
</svg>